<mxfile host="app.diagrams.net" modified="2023-02-15T07:11:34.718Z" agent="5.0 (Windows NT 10.0; Win64; x64) AppleWebKit/537.36 (KHTML, like Gecko) Chrome/109.0.0.0 Safari/537.36 OPR/95.0.0.0" etag="b65ZxgktBuBXJMww0qD7" version="20.8.20" type="github">
  <diagram id="C5RBs43oDa-KdzZeNtuy" name="Page-1">
    <mxGraphModel dx="988" dy="563" grid="1" gridSize="10" guides="1" tooltips="1" connect="1" arrows="1" fold="1" page="1" pageScale="1" pageWidth="827" pageHeight="1169" math="0" shadow="0">
      <root>
        <mxCell id="WIyWlLk6GJQsqaUBKTNV-0" />
        <mxCell id="WIyWlLk6GJQsqaUBKTNV-1" parent="WIyWlLk6GJQsqaUBKTNV-0" />
        <mxCell id="WIyWlLk6GJQsqaUBKTNV-3" value="&lt;b&gt;Start&lt;/b&gt;" style="rounded=1;whiteSpace=wrap;html=1;fontSize=12;glass=0;strokeWidth=1;shadow=0;" parent="WIyWlLk6GJQsqaUBKTNV-1" vertex="1">
          <mxGeometry x="390" y="70" width="120" height="40" as="geometry" />
        </mxCell>
        <mxCell id="n15LIcgMBP6VrkbKuYnZ-0" value="" style="endArrow=classic;html=1;rounded=0;exitX=0.5;exitY=1;exitDx=0;exitDy=0;" edge="1" parent="WIyWlLk6GJQsqaUBKTNV-1" source="WIyWlLk6GJQsqaUBKTNV-3" target="n15LIcgMBP6VrkbKuYnZ-1">
          <mxGeometry width="50" height="50" relative="1" as="geometry">
            <mxPoint x="390" y="320" as="sourcePoint" />
            <mxPoint x="220" y="160" as="targetPoint" />
          </mxGeometry>
        </mxCell>
        <mxCell id="n15LIcgMBP6VrkbKuYnZ-1" value="string[] entry,&lt;br&gt;string[] exit,&lt;br&gt;int i = 0,&lt;br&gt;int j = 0,&lt;br&gt;int t = 3.&lt;br&gt;" style="shape=parallelogram;perimeter=parallelogramPerimeter;whiteSpace=wrap;html=1;fixedSize=1;" vertex="1" parent="WIyWlLk6GJQsqaUBKTNV-1">
          <mxGeometry x="377.5" y="160" width="145" height="80" as="geometry" />
        </mxCell>
        <mxCell id="n15LIcgMBP6VrkbKuYnZ-2" value="" style="endArrow=classic;html=1;rounded=0;exitX=0.5;exitY=1;exitDx=0;exitDy=0;entryX=0.5;entryY=0;entryDx=0;entryDy=0;" edge="1" parent="WIyWlLk6GJQsqaUBKTNV-1" source="n15LIcgMBP6VrkbKuYnZ-1" target="n15LIcgMBP6VrkbKuYnZ-3">
          <mxGeometry width="50" height="50" relative="1" as="geometry">
            <mxPoint x="390" y="280" as="sourcePoint" />
            <mxPoint x="220" y="270" as="targetPoint" />
          </mxGeometry>
        </mxCell>
        <mxCell id="n15LIcgMBP6VrkbKuYnZ-3" value="i &amp;lt; entry.Lenght" style="rhombus;whiteSpace=wrap;html=1;" vertex="1" parent="WIyWlLk6GJQsqaUBKTNV-1">
          <mxGeometry x="360" y="270" width="180" height="80" as="geometry" />
        </mxCell>
        <mxCell id="n15LIcgMBP6VrkbKuYnZ-4" value="YES" style="endArrow=classic;html=1;rounded=0;exitX=0.5;exitY=1;exitDx=0;exitDy=0;fontStyle=2" edge="1" parent="WIyWlLk6GJQsqaUBKTNV-1" source="n15LIcgMBP6VrkbKuYnZ-3" target="n15LIcgMBP6VrkbKuYnZ-5">
          <mxGeometry y="20" width="50" height="50" relative="1" as="geometry">
            <mxPoint x="300" y="280" as="sourcePoint" />
            <mxPoint x="450" y="400" as="targetPoint" />
            <mxPoint as="offset" />
          </mxGeometry>
        </mxCell>
        <mxCell id="n15LIcgMBP6VrkbKuYnZ-5" value="entry[i].Lenght &amp;lt;= t" style="rhombus;whiteSpace=wrap;html=1;" vertex="1" parent="WIyWlLk6GJQsqaUBKTNV-1">
          <mxGeometry x="360" y="390" width="180" height="80" as="geometry" />
        </mxCell>
        <mxCell id="n15LIcgMBP6VrkbKuYnZ-7" value="NO" style="endArrow=classic;html=1;rounded=0;exitX=1;exitY=0.5;exitDx=0;exitDy=0;fontStyle=2" edge="1" parent="WIyWlLk6GJQsqaUBKTNV-1" source="n15LIcgMBP6VrkbKuYnZ-3">
          <mxGeometry y="20" width="50" height="50" relative="1" as="geometry">
            <mxPoint x="300" y="280" as="sourcePoint" />
            <mxPoint x="600" y="310" as="targetPoint" />
            <mxPoint as="offset" />
          </mxGeometry>
        </mxCell>
        <mxCell id="n15LIcgMBP6VrkbKuYnZ-15" value="" style="edgeStyle=orthogonalEdgeStyle;rounded=0;orthogonalLoop=1;jettySize=auto;html=1;" edge="1" parent="WIyWlLk6GJQsqaUBKTNV-1" source="n15LIcgMBP6VrkbKuYnZ-8" target="n15LIcgMBP6VrkbKuYnZ-10">
          <mxGeometry relative="1" as="geometry" />
        </mxCell>
        <mxCell id="n15LIcgMBP6VrkbKuYnZ-8" value="exit" style="shape=parallelogram;perimeter=parallelogramPerimeter;whiteSpace=wrap;html=1;fixedSize=1;" vertex="1" parent="WIyWlLk6GJQsqaUBKTNV-1">
          <mxGeometry x="590" y="290" width="90" height="40" as="geometry" />
        </mxCell>
        <mxCell id="n15LIcgMBP6VrkbKuYnZ-10" value="&lt;b&gt;Finish&lt;/b&gt;" style="rounded=1;whiteSpace=wrap;html=1;" vertex="1" parent="WIyWlLk6GJQsqaUBKTNV-1">
          <mxGeometry x="575" y="200" width="120" height="40" as="geometry" />
        </mxCell>
        <mxCell id="n15LIcgMBP6VrkbKuYnZ-11" value="YES" style="endArrow=classic;html=1;rounded=0;exitX=0.5;exitY=1;exitDx=0;exitDy=0;fontStyle=2" edge="1" parent="WIyWlLk6GJQsqaUBKTNV-1" source="n15LIcgMBP6VrkbKuYnZ-5" target="n15LIcgMBP6VrkbKuYnZ-12">
          <mxGeometry x="-0.3333" y="20" width="50" height="50" relative="1" as="geometry">
            <mxPoint x="300" y="320" as="sourcePoint" />
            <mxPoint x="450" y="510" as="targetPoint" />
            <mxPoint as="offset" />
          </mxGeometry>
        </mxCell>
        <mxCell id="n15LIcgMBP6VrkbKuYnZ-14" value="" style="edgeStyle=orthogonalEdgeStyle;rounded=0;orthogonalLoop=1;jettySize=auto;html=1;" edge="1" parent="WIyWlLk6GJQsqaUBKTNV-1" source="n15LIcgMBP6VrkbKuYnZ-12" target="n15LIcgMBP6VrkbKuYnZ-13">
          <mxGeometry relative="1" as="geometry" />
        </mxCell>
        <mxCell id="n15LIcgMBP6VrkbKuYnZ-12" value="exit[j] = entry[i]" style="rounded=0;whiteSpace=wrap;html=1;" vertex="1" parent="WIyWlLk6GJQsqaUBKTNV-1">
          <mxGeometry x="390" y="500" width="120" height="60" as="geometry" />
        </mxCell>
        <mxCell id="n15LIcgMBP6VrkbKuYnZ-18" value="" style="edgeStyle=orthogonalEdgeStyle;rounded=0;orthogonalLoop=1;jettySize=auto;html=1;" edge="1" parent="WIyWlLk6GJQsqaUBKTNV-1" source="n15LIcgMBP6VrkbKuYnZ-13" target="n15LIcgMBP6VrkbKuYnZ-16">
          <mxGeometry relative="1" as="geometry" />
        </mxCell>
        <mxCell id="n15LIcgMBP6VrkbKuYnZ-13" value="j++" style="whiteSpace=wrap;html=1;rounded=0;" vertex="1" parent="WIyWlLk6GJQsqaUBKTNV-1">
          <mxGeometry x="180" y="500" width="120" height="60" as="geometry" />
        </mxCell>
        <mxCell id="n15LIcgMBP6VrkbKuYnZ-16" value="i++" style="rounded=0;whiteSpace=wrap;html=1;" vertex="1" parent="WIyWlLk6GJQsqaUBKTNV-1">
          <mxGeometry x="180" y="400" width="120" height="60" as="geometry" />
        </mxCell>
        <mxCell id="n15LIcgMBP6VrkbKuYnZ-17" value="NO" style="endArrow=classic;html=1;rounded=0;exitX=0;exitY=0.5;exitDx=0;exitDy=0;entryX=1;entryY=0.5;entryDx=0;entryDy=0;fontStyle=2" edge="1" parent="WIyWlLk6GJQsqaUBKTNV-1" source="n15LIcgMBP6VrkbKuYnZ-5" target="n15LIcgMBP6VrkbKuYnZ-16">
          <mxGeometry y="-20" width="50" height="50" relative="1" as="geometry">
            <mxPoint x="300" y="320" as="sourcePoint" />
            <mxPoint x="350" y="270" as="targetPoint" />
            <mxPoint as="offset" />
          </mxGeometry>
        </mxCell>
        <mxCell id="n15LIcgMBP6VrkbKuYnZ-21" value="" style="endArrow=classic;html=1;rounded=0;exitX=0.5;exitY=0;exitDx=0;exitDy=0;entryX=0;entryY=0.5;entryDx=0;entryDy=0;" edge="1" parent="WIyWlLk6GJQsqaUBKTNV-1" source="n15LIcgMBP6VrkbKuYnZ-16" target="n15LIcgMBP6VrkbKuYnZ-3">
          <mxGeometry width="50" height="50" relative="1" as="geometry">
            <mxPoint x="300" y="320" as="sourcePoint" />
            <mxPoint x="350" y="270" as="targetPoint" />
            <Array as="points">
              <mxPoint x="240" y="310" />
            </Array>
          </mxGeometry>
        </mxCell>
      </root>
    </mxGraphModel>
  </diagram>
</mxfile>
